# xmcd
#
# Track frame offsets:
#	150
#	16262
#	28837
#	38440
#	49452
#	59207
#	76130
#	87080
#	100007
#	112397
#	125330
#	139482
#	154265
#	174785
#
# Disc length: 2491 seconds
#
# Revision: 1
# Processed by: cddbd v1.4PL0 Copyright (c) Steve Scherf et al.
# Submitted via: audiograbber 1.80
#
DISCID=b909b90e
DTITLE=Charlie Byrd - The Great Byrd
DYEAR=1900
DGENRE=
TTITLE0=In My Room
TTITLE1=The Shadow Of Your Smile
TTITLE2=It Was A Very Good Year
TTITLE3=Yesterday
TTITLE4=A Taste Of Honey
TTITLE5=Michelle
TTITLE6=Walk Right In
TTITLE7=Wichita Lineman
TTITLE8=For Once In My Life
TTITLE9=Scarborough Fair
TTITLE10=Hey Jude
TTITLE11=I'll Never Fall In Love Again
TTITLE12=Lullaby From "Rosemary's Baby"
TTITLE13=Who Is Gonna Love Me
EXTD=
EXTT0=
EXTT1=
EXTT2=
EXTT3=
EXTT4=
EXTT5=
EXTT6=
EXTT7=
EXTT8=
EXTT9=
EXTT10=
EXTT11=
EXTT12=
EXTT13=
PLAYORDER=
